HIERARCHY
ROOT hip
{
  OFFSET 0 0 0
  CHANNELS 6 Xposition Yposition Zposition Zrotation Yrotation Xrotation
  JOINT abdomen
  {
    OFFSET 0 20.6881 -0.73152
    CHANNELS 3 Zrotation Xrotation Yrotation
    JOINT chest
    {
      OFFSET 0 11.7043 -0.48768
      CHANNELS 3 Zrotation Xrotation Yrotation
      JOINT neck
      {
        OFFSET 0 22.1894 -2.19456
        CHANNELS 3 Zrotation Xrotation Yrotation
        JOINT head
        {
          OFFSET -0.24384 7.07133 1.2192
          CHANNELS 3 Zrotation Xrotation Yrotation
          JOINT leftEye
          {
            OFFSET 4.14528 8.04674 8.04672
            CHANNELS 3 Zrotation Xrotation Yrotation
            End Site
            {
              OFFSET 1 0 0
            }
          }
          JOINT rightEye
          {
            OFFSET -3.6576 8.04674 8.04672
            CHANNELS 3 Zrotation Xrotation Yrotation
            End Site
            {
              OFFSET 1 0 0
            }
          }
        }
      }
      JOINT rCollar
      {
        OFFSET -2.68224 19.2634 -4.8768
        CHANNELS 3 Zrotation Xrotation Yrotation
        JOINT rShldr
        {
          OFFSET -8.77824 -1.95073 1.46304
          CHANNELS 3 Zrotation Xrotation Yrotation
          JOINT rForeArm
          {
            OFFSET -28.1742 -1.7115 0.48768
            CHANNELS 3 Zrotation Xrotation Yrotation
            JOINT rHand
            {
              OFFSET -22.5879 0.773209 7.07136
              CHANNELS 3 Zrotation Xrotation Yrotation
              JOINT rThumb1
              {
                OFFSET -1.2192 -0.487915 3.41376
                CHANNELS 3 Zrotation Xrotation Yrotation
                JOINT rThumb2
                {
                  OFFSET -3.37035 -0.52449 3.41376
                  CHANNELS 3 Zrotation Xrotation Yrotation
                  End Site
                  {
                    OFFSET -1.78271 -1.18214 1.43049
                  }
                }
              }
              JOINT rIndex1
              {
                OFFSET -7.75947 0.938293 5.60832
                CHANNELS 3 Zrotation Xrotation Yrotation
                JOINT rIndex2
                {
                  OFFSET -2.54057 -0.884171 1.56538
                  CHANNELS 3 Zrotation Xrotation Yrotation
                  End Site
                  {
                    OFFSET -1.62519 -0.234802 1.16502
                  }
                }
              }
              JOINT rMid1
              {
                OFFSET -8.24714 1.18213 3.41376
                CHANNELS 3 Zrotation Xrotation Yrotation
                JOINT rMid2
                {
                  OFFSET -3.10165 -0.590103 1.0647
                  CHANNELS 3 Zrotation Xrotation Yrotation
                  End Site
                  {
                    OFFSET -2.48547 -0.328903 0.83742
                  }
                }
              }
              JOINT rRing1
              {
                OFFSET -8.82822 0.546677 1.51678
                CHANNELS 3 Zrotation Xrotation Yrotation
                JOINT rRing2
                {
                  OFFSET -2.60934 -0.819778 -0.0198488
                  CHANNELS 3 Zrotation Xrotation Yrotation
                  End Site
                  {
                    OFFSET -2.33842 -0.294052 0.168128
                  }
                }
              }
              JOINT rPinky1
              {
                OFFSET -8.27202 -0.0477905 -0.4584
                CHANNELS 3 Zrotation Xrotation Yrotation
                JOINT rPinky2
                {
                  OFFSET -1.82734 -0.647385 -0.700984
                  CHANNELS 3 Zrotation Xrotation Yrotation
                  End Site
                  {
                    OFFSET -1.69225 -0.51767 -0.607171
                  }
                }
              }
            }
          }
        }
      }
      JOINT lCollar
      {
        OFFSET 2.68224 19.2634 -4.8768
        CHANNELS 3 Zrotation Xrotation Yrotation
        JOINT lShldr
        {
          OFFSET 8.77824 -1.95073 1.46304
          CHANNELS 3 Zrotation Xrotation Yrotation
          JOINT lForeArm
          {
            OFFSET 28.1742 -1.7115 0.48768
            CHANNELS 3 Zrotation Xrotation Yrotation
            JOINT lHand
            {
              OFFSET 22.5879 0.773209 7.07136
              CHANNELS 3 Zrotation Xrotation Yrotation
              JOINT lThumb1
              {
                OFFSET 1.2192 -0.487915 3.41376
                CHANNELS 3 Zrotation Xrotation Yrotation
                JOINT lThumb2
                {
                  OFFSET 3.37035 -0.52449 3.41376
                  CHANNELS 3 Zrotation Xrotation Yrotation
                  End Site
                  {
                    OFFSET 1.78271 -1.18214 1.43049
                  }
                }
              }
              JOINT lIndex1
              {
                OFFSET 7.75947 0.938293 5.60832
                CHANNELS 3 Zrotation Xrotation Yrotation
                JOINT lIndex2
                {
                  OFFSET 2.54057 -0.884171 1.56538
                  CHANNELS 3 Zrotation Xrotation Yrotation
                  End Site
                  {
                    OFFSET 1.62519 -0.234802 1.16502
                  }
                }
              }
              JOINT lMid1
              {
                OFFSET 8.24714 1.18213 3.41376
                CHANNELS 3 Zrotation Xrotation Yrotation
                JOINT lMid2
                {
                  OFFSET 3.10165 -0.590103 1.0647
                  CHANNELS 3 Zrotation Xrotation Yrotation
                  End Site
                  {
                    OFFSET 2.48547 -0.328903 0.83742
                  }
                }
              }
              JOINT lRing1
              {
                OFFSET 8.82822 0.546677 1.51678
                CHANNELS 3 Zrotation Xrotation Yrotation
                JOINT lRing2
                {
                  OFFSET 2.60934 -0.819778 -0.0198488
                  CHANNELS 3 Zrotation Xrotation Yrotation
                  End Site
                  {
                    OFFSET 2.33842 -0.294052 0.168128
                  }
                }
              }
              JOINT lPinky1
              {
                OFFSET 8.27202 -0.0477905 -0.4584
                CHANNELS 3 Zrotation Xrotation Yrotation
                JOINT lPinky2
                {
                  OFFSET 1.82734 -0.647385 -0.700984
                  CHANNELS 3 Zrotation Xrotation Yrotation
                  End Site
                  {
                    OFFSET 1.69225 -0.51767 -0.607171
                  }
                }
              }
            }
          }
        }
      }
    }
  }
  JOINT rButtock
  {
    OFFSET -8.77824 4.35084 1.2192
    CHANNELS 3 Zrotation Xrotation Yrotation
    JOINT rThigh
    {
      OFFSET 0 -1.70687 -2.19456
      CHANNELS 3 Zrotation Xrotation Yrotation
      JOINT rShin
      {
        OFFSET 0 -36.8199 0.73152
        CHANNELS 3 Zrotation Xrotation Yrotation
        JOINT rFoot
        {
          OFFSET 0.73152 -45.1104 -5.12064
          CHANNELS 3 Zrotation Xrotation Yrotation
          End Site
          {
            OFFSET -1.1221 -3.69964 12.103
          }
        }
      }
    }
  }
  JOINT lButtock
  {
    OFFSET 8.77824 4.35084 1.2192
    CHANNELS 3 Zrotation Xrotation Yrotation
    JOINT lThigh
    {
      OFFSET 0 -1.70687 -2.19456
      CHANNELS 3 Zrotation Xrotation Yrotation
      JOINT lShin
      {
        OFFSET 0 -36.8199 0.73152
        CHANNELS 3 Zrotation Xrotation Yrotation
        JOINT lFoot
        {
          OFFSET -0.73152 -45.1104 -5.12064
          CHANNELS 3 Zrotation Xrotation Yrotation
          End Site
          {
            OFFSET 1.1221 -3.69964 12.103
          }
        }
      }
    }
  }
}
MOTION
Frames:	4
Frame Time:	0.00833333
-8.89747 65.9961 -14.7443 181.136 -34.6414 -164.416 -11.5243 48.3198 6.25602 6.29901 -5.39533 -0.889065 -14.8264 12.0178 -9.91753 63.1256 -52.4059 3.67326 -0.0 0.0 0.0 -0.0 0.0 0.0 7.26961e-13 2.78367e-13 -5.65623e-13 62.1672 -3.58514 26.4484 -12.5688 -5.85318 22.7207 -0.124823 9.8539 1.39963 4.66343e-09 5.40548e-09 -4.39922e-09 8.03253e-09 9.40038e-09 -7.65432e-09 4.66344e-09 5.40548e-09 -4.39924e-09 7.73091 5.47488 0.417314 4.66343e-09 5.40548e-09 -4.39923e-09 2.90554 0.965183 0.102902 4.66343e-09 5.40548e-09 -4.39923e-09 10.2786 0.731801 0.0259123 4.66343e-09 5.40548e-09 -4.39922e-09 2.22167 -0.733487 -0.20892 7.26861e-13 2.78379e-13 -5.65897e-13 -51.8948 -44.3326 -42.9148 14.2081 -7.07356 -26.1835 4.19426 -49.29 9.31864 -6.02908e-09 1.18337e-09 7.80085e-10 -1.04149e-08 2.12063e-09 1.08333e-09 -6.02909e-09 1.18337e-09 7.80092e-10 -7.73091 5.47488 -0.417314 -6.02908e-09 1.18337e-09 7.80088e-10 -2.90554 0.965183 -0.102902 -6.02908e-09 1.18337e-09 7.80083e-10 -10.2786 0.731801 -0.0259123 -6.02907e-09 1.18337e-09 7.80077e-10 -2.22167 -0.733487 0.20892 -2.03217e-16 0.0 -3.88251e-19 -24.0953 -46.633 -47.5414 -2.84228 73.6384 2.9878 2.67228 -17.8254 7.83061 2.03217e-16 0.0 3.88251e-19 24.6092 -53.4852 24.6577 2.02309 70.3547 -2.65659 -0.771519 -8.73583 -7.0807
-7.8104 66.4993 -15.7553 181.927 -33.2253 -164.328 -12.1373 48.1336 7.18781 6.15415 -5.43282 -0.722442 -14.9521 12.5271 -10.2706 64.9215 -53.1314 3.68357 -0.0 0.0 0.0 -0.0 0.0 0.0 8.52452e-13 3.53041e-13 -7.02803e-13 63.2169 -4.48114 25.1464 -12.7343 -5.97706 23.0402 -0.0870791 8.38806 1.18745 5.33825e-09 6.34588e-09 -5.46162e-09 9.19183e-09 1.10358e-08 -9.49893e-09 5.33826e-09 6.34588e-09 -5.46164e-09 7.73091 5.47488 0.417314 5.33825e-09 6.34588e-09 -5.46163e-09 2.90554 0.965183 0.102902 5.33826e-09 6.34588e-09 -5.46163e-09 10.2786 0.731801 0.0259123 5.33825e-09 6.34587e-09 -5.46162e-09 2.22167 -0.733487 -0.20892 8.52331e-13 3.53042e-13 -7.03101e-13 -47.664 -41.1162 -38.3958 15.9115 -8.60523 -29.4861 6.26099 -55.6001 11.8445 -7.04691e-09 1.49444e-09 8.15421e-10 -1.2174e-08 2.67097e-09 1.10329e-09 -7.04692e-09 1.49444e-09 8.15427e-10 -7.73091 5.47488 -0.417314 -7.04692e-09 1.49444e-09 8.15424e-10 -2.90554 0.965183 -0.102902 -7.04692e-09 1.49444e-09 8.15419e-10 -10.2786 0.731801 -0.0259123 -7.04691e-09 1.49444e-09 8.15412e-10 -2.22167 -0.733487 0.20892 -2.03217e-16 0.0 -3.88251e-19 -23.5559 -46.2956 -48.1737 -2.8336 73.4439 2.88964 3.39703 -16.4214 10.5609 2.03217e-16 0.0 3.88251e-19 23.3542 -54.0218 23.5092 2.03469 70.2319 -2.58244 -1.04518 -8.19199 -9.27632
-6.74178 66.9338 -16.7807 182.587 -31.8599 -164.19 -12.7689 47.9395 8.13146 5.92767 -5.52066 -0.553541 -15.0351 13.0606 -10.6021 66.3392 -53.5275 3.46983 -0.0 0.0 0.0 -0.0 0.0 0.0 7.48367e-13 3.82194e-13 -7.02706e-13 64.2199 -5.02806 23.5529 -12.9891 -6.16987 23.5358 -0.0502519 6.62329 0.934926 4.61608e-09 5.71161e-09 -5.39574e-09 7.94584e-09 9.93086e-09 -9.37732e-09 4.61609e-09 5.71161e-09 -5.39576e-09 7.73091 5.47488 0.417314 4.61608e-09 5.7116e-09 -5.39575e-09 2.90554 0.965183 0.102902 4.61608e-09 5.7116e-09 -5.39575e-09 10.2786 0.731801 0.0259123 4.61608e-09 5.7116e-09 -5.39574e-09 2.22167 -0.733487 -0.20892 7.48228e-13 3.82183e-13 -7.03025e-13 -46.2759 -39.1527 -35.8007 17.7309 -10.5043 -33.1052 8.72641 -61.0687 14.7188 -6.0995e-09 1.32629e-09 6.92672e-10 -1.05398e-08 2.37127e-09 9.33552e-10 -6.09951e-09 1.32628e-09 6.9268e-10 -7.73091 5.47488 -0.417314 -6.09951e-09 1.32628e-09 6.92675e-10 -2.90554 0.965183 -0.102902 -6.09951e-09 1.32628e-09 6.9267e-10 -10.2786 0.731801 -0.0259123 -6.0995e-09 1.32628e-09 6.92662e-10 -2.22167 -0.733487 0.20892 -2.03217e-16 0.0 -3.88251e-19 -23.0969 -45.8536 -48.5616 -2.77822 73.1548 2.80839 3.44282 -15.3431 11.3711 2.03217e-16 0.0 3.88251e-19 22.0054 -54.4688 22.1444 2.0183 70.0072 -2.50608 -1.1454 -8.00894 -10.2362
-5.73072 67.3135 -17.8175 183.053 -30.4349 -164.074 -13.4457 47.7461 9.10645 5.64254 -5.6323 -0.383817 -15.0885 13.6305 -10.9134 67.584 -53.7453 3.16771 -0.0 0.0 0.0 -0.0 0.0 0.0 5.08362e-13 3.87443e-13 -6.25818e-13 65.2739 -5.42856 21.7641 -13.2953 -6.40389 24.1386 -0.0206377 4.71268 0.663487 3.05682e-09 4.07236e-09 -4.60325e-09 5.25924e-09 7.07818e-09 -7.99084e-09 3.05683e-09 4.07236e-09 -4.60327e-09 7.73091 5.47488 0.417314 3.05682e-09 4.07236e-09 -4.60326e-09 2.90554 0.965183 0.102902 3.05682e-09 4.07236e-09 -4.60326e-09 10.2786 0.731801 0.0259123 3.05681e-09 4.07235e-09 -4.60325e-09 2.22167 -0.733487 -0.20892 5.08201e-13 3.87419e-13 -6.26156e-13 -46.401 -37.8368 -34.1586 19.5402 -12.5764 -37.2181 12.1968 -66.3002 18.5983 -3.89379e-09 8.37785e-10 4.52791e-10 -6.73261e-09 1.50378e-09 6.15267e-10 -3.89379e-09 8.37782e-10 4.52803e-10 -7.73091 5.47488 -0.417314 -3.89379e-09 8.37783e-10 4.52795e-10 -2.90554 0.965183 -0.102902 -3.89379e-09 8.37783e-10 4.52791e-10 -10.2786 0.731801 -0.0259123 -3.89378e-09 8.37785e-10 4.52782e-10 -2.22167 -0.733487 0.20892 -2.03217e-16 0.0 -3.88251e-19 -22.7129 -45.3122 -48.7064 -2.68859 72.8001 2.74227 3.06872 -14.433 10.8218 2.03217e-16 0.0 3.88251e-19 20.4536 -54.8207 20.4255 1.97424 69.6143 -2.41921 -1.15307 -8.02659 -10.4003
